Run_50002
nRows=4
nColumns=164

# SIMM Motion File Header:
name Run_50002
datacolumns 164
datarows 4
otherdata 1
range 4.11000000 4.14000000
endheader
time	pelvis_tilt	pelvis_list	pelvis_rotation	pelvis_tx	pelvis_ty	pelvis_tz	hip_flexion_r	hip_adduction_r	hip_rotation_r	knee_angle_r	ankle_angle_r	hip_flexion_l	hip_adduction_l	hip_rotation_l	knee_angle_l	ankle_angle_l	lumbar_extension	lumbar_bending	lumbar_rotation	arm_flex_r	arm_add_r	arm_rot_r	elbow_flex_r	pro_sup_r	arm_flex_l	arm_add_l	arm_rot_l	elbow_flex_l	pro_sup_l	subtalar_angle_r	mtp_angle_r	subtalar_angle_l	mtp_angle_l	wrist_flex_r	wrist_dev_r	wrist_flex_l	wrist_dev_l	LASI_tx	LASI_ty	LASI_tz	RASI_tx	RASI_ty	RASI_tz	LPSI_tx	LPSI_ty	LPSI_tz	RPSI_tx	RPSI_ty	RPSI_tz	RTH1_tx	RTH1_ty	RTH1_tz	RTH2_tx	RTH2_ty	RTH2_tz	RTH3_tx	RTH3_ty	RTH3_tz	LTH1_tx	LTH1_ty	LTH1_tz	LTH2_tx	LTH2_ty	LTH2_tz	LTH3_tx	LTH3_ty	LTH3_tz	RTB1_tx	RTB1_ty	RTB1_tz	RTB2_tx	RTB2_ty	RTB2_tz	RTB3_tx	RTB3_ty	RTB3_tz	LTB1_tx	LTB1_ty	LTB1_tz	LTB2_tx	LTB2_ty	LTB2_tz	LTB3_tx	LTB3_ty	LTB3_tz	RCAL_tx	RCAL_ty	RCAL_tz	RTOE_tx	RTOE_ty	RTOE_tz	RMT5_tx	RMT5_ty	RMT5_tz	LCAL_tx	LCAL_ty	LCAL_tz	LTOE_tx	LTOE_ty	LTOE_tz	LMT5_tx	LMT5_ty	LMT5_tz	LACR_tx	LACR_ty	LACR_tz	RACR_tx	RACR_ty	RACR_tz	CLAV_tx	CLAV_ty	CLAV_tz	C7_tx	C7_ty	C7_tz	RUA1_tx	RUA1_ty	RUA1_tz	RUA2_tx	RUA2_ty	RUA2_tz	RUA3_tx	RUA3_ty	RUA3_tz	RLEL_tx	RLEL_ty	RLEL_tz	RMEL_tx	RMEL_ty	RMEL_tz	LUA1_tx	LUA1_ty	LUA1_tz	LUA2_tx	LUA2_ty	LUA2_tz	LUA3_tx	LUA3_ty	LUA3_tz	LLEL_tx	LLEL_ty	LLEL_tz	LMEL_tx	LMEL_ty	LMEL_tz	RFAsuperior_tx	RFAsuperior_ty	RFAsuperior_tz	RFAradius_tx	RFAradius_ty	RFAradius_tz	RFAulna_tx	RFAulna_ty	RFAulna_tz	LFAsuperior_tx	LFAsuperior_ty	LFAsuperior_tz	LFAradius_tx	LFAradius_ty	LFAradius_tz	LFAulna_tx	LFAulna_ty	LFAulna_tz
      4.11000000	     -5.99597918	      1.12531323	     -6.87904216	      0.85150613	      0.98944248	     -0.31469746	    -15.83368605	     -1.31311073	     -4.66420875	    -38.62560709	    -20.01259957	     46.74310173	      0.56366648	     -1.34343390	    -21.82818479	      4.09987590	     -8.00843304	     -4.84788212	     20.81128466	     -8.45347340	    -42.26891686	    -10.31021745	    127.51760460	     85.82096792	    -48.36208900	    -21.23562585	    -16.80108765	    113.82116541	    115.12329606	      0.00000000	      0.00000000	      0.00000000	      0.00000000	      0.00000000	      0.00000000	      0.00000000	      0.00000000	      0.87056315	      1.00379207	     -0.43690931	      0.83808191	      1.00769531	     -0.19694961	      0.69887360	      1.05217071	     -0.38542705	      0.68765773	      1.06092264	     -0.28648564	      0.70191946	      0.78145226	     -0.15266018	      0.72960379	      0.68117952	     -0.16427834	      0.63593919	      0.61861517	     -0.18510760	      0.90911851	      0.84853061	     -0.48699662	      1.01214566	      0.79701108	     -0.46598901	      1.02350252	      0.67220727	     -0.44790909	      0.51966620	      0.43411197	     -0.25625751	      0.43013340	      0.42543262	     -0.21666040	      0.35550777	      0.34392731	     -0.28412808	      1.14353625	      0.51786127	     -0.38800446	      1.11532450	      0.42119139	     -0.44244299	      1.18272939	      0.33067083	     -0.36979703	      0.23759575	      0.38631588	     -0.31411077	      0.26791931	      0.16775938	     -0.34206256	      0.20920979	      0.19408304	     -0.25076116	      1.13356678	      0.17488154	     -0.35590901	      1.33522653	      0.25751868	     -0.33062261	      1.32638370	      0.19316483	     -0.41824542	      0.84515110	      1.48368686	     -0.48876023	      0.88855451	      1.48572337	     -0.21161327	      0.94304582	      1.39635097	     -0.34281789	      0.83328896	      1.52151173	     -0.33881755	      0.88196252	      1.41635243	     -0.09298062	      0.82671079	      1.35391498	     -0.06249459	      0.89099315	      1.32285930	     -0.00851812	      0.89318420	      1.26389056	      0.04497403	      0.85357987	      1.20926631	      0.00359315	      0.72701832	      1.44943619	     -0.55314729	      0.67670928	      1.41224012	     -0.49180617	      0.65155395	      1.38674084	     -0.57465691	      0.57522100	      1.33673275	     -0.58780208	      0.56627418	      1.31471075	     -0.51736673	      0.99353001	      1.27874324	     -0.01753968	      1.05511263	      1.28012538	     -0.13824732	      1.07916127	      1.22452686	     -0.10297101	      0.67102504	      1.27493841	     -0.60524661	      0.76486285	      1.17083441	     -0.56216227	      0.71282442	      1.15197137	     -0.60943447
      4.12000000	     -6.57030067	     -0.11788863	     -6.72993261	      0.85372128	      0.98874566	     -0.31462603	    -14.47255616	     -0.23906023	     -3.91256125	    -45.29615271	    -17.12276311	     44.84685320	     -0.39321699	     -1.57221789	    -15.37769359	      4.30106637	     -7.09764267	     -3.39009062	     20.19694678	    -10.10060742	    -42.53298436	    -11.57953811	    127.79421941	     86.44427061	    -48.87201925	    -20.46005300	    -17.98368478	    114.63470243	    114.22415543	      0.00000000	      0.00000000	      0.00000000	      0.00000000	      0.00000000	      0.00000000	      0.00000000	      0.00000000	      0.87068381	      1.00167157	     -0.43587853	      0.84145953	      1.01014634	     -0.19794494	      0.70076812	      1.05423947	     -0.38554108	      0.68983995	      1.06363380	     -0.28657473	      0.70752548	      0.78095798	     -0.15104597	      0.73625892	      0.68166307	     -0.16188929	      0.64324778	      0.61813499	     -0.18142476	      0.90549949	      0.83916548	     -0.48978226	      1.00756907	      0.78225262	     -0.46939391	      1.01262685	      0.65816253	     -0.44742305	      0.51931426	      0.44176607	     -0.25241994	      0.42796701	      0.44320005	     -0.21414518	      0.34674568	      0.36853003	     -0.28143586	      1.13857416	      0.50854120	     -0.38553695	      1.11536875	      0.41198028	     -0.44015710	      1.18951805	      0.32676002	     -0.36808521	      0.23035281	      0.42153334	     -0.31364563	      0.24925136	      0.20155978	     -0.33854330	      0.19109596	      0.23208539	     -0.24803374	      1.15095122	      0.16720831	     -0.35169889	      1.34690910	      0.26463744	     -0.33225497	      1.34002240	      0.19928188	     -0.41987531	      0.84631272	      1.48391701	     -0.49059206	      0.88790815	      1.48781901	     -0.21146124	      0.94423269	      1.39876985	     -0.34324322	      0.83359116	      1.52217133	     -0.34021865	      0.87711832	      1.41942575	     -0.09220176	      0.82100640	      1.35582531	     -0.06378509	      0.88423578	      1.32808456	     -0.00629441	      0.88559343	      1.26866909	      0.04710931	      0.84711910	      1.21371721	      0.00528470	      0.72835963	      1.44899874	     -0.55416317	      0.67832558	      1.41133092	     -0.49239804	      0.65261000	      1.38697085	     -0.57482811	      0.57665979	      1.33612080	     -0.58756142	      0.56849319	      1.31341056	     -0.51736655	      0.98733248	      1.28268833	     -0.01308191	      1.05079052	      1.28235875	     -0.13336225	      1.07487268	      1.22754093	     -0.09714750	      0.67300447	      1.27660939	     -0.60669271	      0.77007306	      1.17441754	     -0.56498798	      0.71741058	      1.15411942	     -0.61149683
      4.13000000	     -6.85145961	     -1.54310522	     -6.56383260	      0.85509971	      0.98771230	     -0.31480988	    -12.88006646	      0.95872989	     -3.44890687	    -52.78213756	    -14.93882394	     43.15974672	     -1.42748092	     -2.74893176	    -11.22675013	      4.33404960	     -6.72472835	     -1.70428761	     19.39414272	    -11.96246612	    -42.80422782	    -12.76797610	    127.79406347	     86.66204524	    -48.79552209	    -19.73850070	    -18.84591214	    115.07714356	    113.47886434	      0.00000000	      0.00000000	      0.00000000	      0.00000000	      0.00000000	      0.00000000	      0.00000000	      0.00000000	      0.87031143	      0.99925018	     -0.43538763	      0.84486511	      1.01206298	     -0.19871622	      0.70185049	      1.05415063	     -0.38646718	      0.69119148	      1.06419202	     -0.28748265	      0.71232862	      0.78042899	     -0.14970270	      0.74254530	      0.68199855	     -0.15823835	      0.65198933	      0.61666715	     -0.17840167	      0.90068541	      0.82946683	     -0.49198743	      1.00089498	      0.76744137	     -0.47210199	      1.00184902	      0.64556353	     -0.44662884	      0.52342975	      0.44880768	     -0.24834104	      0.43139097	      0.46075785	     -0.21116782	      0.34411341	      0.39416700	     -0.27868757	      1.13178812	      0.49950329	     -0.38247814	      1.11113615	      0.40285156	     -0.43706908	      1.18946904	      0.32119585	     -0.36589387	      0.23140244	      0.45833262	     -0.31199972	      0.23479778	      0.23773328	     -0.33507951	      0.17788934	      0.27287842	     -0.24562376	      1.15719253	      0.16005927	     -0.34635337	      1.35023320	      0.26447709	     -0.33559805	      1.34131462	      0.19886319	     -0.42352164	      0.84804369	      1.48363252	     -0.49166751	      0.88710253	      1.48862542	     -0.21113818	      0.94526461	      1.39989959	     -0.34344630	      0.83443769	      1.52179047	     -0.34203307	      0.87175994	      1.42076726	     -0.09097585	      0.81401530	      1.35686442	     -0.06483312	      0.87574766	      1.33167701	     -0.00405745	      0.87578996	      1.27198167	      0.04927726	      0.83802109	      1.21711988	      0.00680107	      0.73059925	      1.44656849	     -0.55624367	      0.68073737	      1.40885259	     -0.49381614	      0.65510180	      1.38511720	     -0.57581860	      0.57954783	      1.33346594	     -0.58867760	      0.57196014	      1.30976790	     -0.51874930	      0.97927115	      1.28387592	     -0.00784207	      1.04537471	      1.28120416	     -0.12743043	      1.06805228	      1.22674860	     -0.09011058	      0.67682205	      1.27602059	     -0.60880183	      0.77646103	      1.17564773	     -0.56806215	      0.72358951	      1.15413369	     -0.61407285
      4.14000000	     -6.79251546	     -2.78728469	     -6.41261114	      0.85570167	      0.98635377	     -0.31516450	    -11.06087046	      1.86376858	     -3.25152347	    -60.98846383	    -13.94771407	     41.59674458	     -2.24094575	     -4.63100754	     -9.25943747	      4.21017151	     -6.88046779	     -0.23241895	     18.49700517	    -14.04629964	    -42.97895255	    -13.82997310	    127.49323024	     86.44922477	    -48.15693186	    -19.21858402	    -19.39345786	    115.21997847	    112.93682312	      0.00000000	      0.00000000	      0.00000000	      0.00000000	      0.00000000	      0.00000000	      0.00000000	      0.00000000	      0.86974954	      0.99694246	     -0.43556554	      0.84768166	      1.01332372	     -0.19902077	      0.70238310	      1.05170829	     -0.38762536	      0.69204146	      1.06253879	     -0.28867322	      0.71698908	      0.77997752	     -0.14825311	      0.74929432	      0.68192722	     -0.15360010	      0.66237142	      0.61398758	     -0.17526742	      0.89507275	      0.82065682	     -0.49326847	      0.99297402	      0.75401868	     -0.47428292	      0.99235174	      0.63526975	     -0.44555133	      0.53164336	      0.45493223	     -0.24406137	      0.44054189	      0.47661254	     -0.20776268	      0.34775813	      0.41970180	     -0.27616688	      1.12369860	      0.49075720	     -0.37976919	      1.10320474	      0.39312478	     -0.43367124	      1.18339697	      0.31291529	     -0.36310133	      0.24210135	      0.49498478	     -0.30950172	      0.22368536	      0.27540226	     -0.33151666	      0.17017436	      0.31613461	     -0.24273523	      1.15287822	      0.15195973	     -0.34003812	      1.34599468	      0.25649109	     -0.33920206	      1.33230946	      0.19063466	     -0.42688260	      0.85020385	      1.48250082	     -0.49223382	      0.88630013	      1.48799683	     -0.21106215	      0.94608975	      1.39947712	     -0.34340031	      0.83525398	      1.52049754	     -0.34367671	      0.86628479	      1.42062877	     -0.08961549	      0.80621247	      1.35748277	     -0.06582269	      0.86591192	      1.33363652	     -0.00190306	      0.86411065	      1.27401216	      0.05137849	      0.82653713	      1.21964347	      0.00815075	      0.73346927	      1.44272714	     -0.55896493	      0.68372643	      1.40499522	     -0.49585149	      0.65877425	      1.38118969	     -0.57763167	      0.58372877	      1.32869003	     -0.59123906	      0.57647949	      1.30382423	     -0.52165096	      0.96948165	      1.28230708	     -0.00241153	      1.03879395	      1.27665576	     -0.12053816	      1.05881990	      1.22214337	     -0.08217130	      0.68235842	      1.27321833	     -0.61151231	      0.78389608	      1.17460163	     -0.57111321	      0.73130682	      1.15204755	     -0.61701344
